#!OML:ASF E:\Steps\Project 1\Capture day 1\Session 2\Subject.ASF
:FULLY-SPECIFIED
:DEGREES
280
root 3.99425 17.2521 16.8687 -152.481 -0.485481 174.699
lowerback -24.183 -3.21687 -7.43415
upperback 1.52894 -2.20496 -0.393802
thorax 15.7505 -1.65832 2.96173
lowerneck -1.13078 -3.40909 -0.132383
upperneck 24.9082 -2.57762 0.714239
head 7.86018 -0.340213 0.195866
rclavicle -5.98839e-015 -1.68967e-014
rhumerus -39.6417 -16.1824 -79.1628
rradius 37.715
rwrist -9.46494
rhand -2.68018 -55.3876
rfingers 7.12502
rthumb 23.0209 -84.0327
lclavicle -5.98839e-015 -1.68967e-014
lhumerus -32.016 8.06793 75.1261
lradius 25.1888
lwrist -4.40274
lhand -19.9162 -11.958
lfingers 7.12502
lthumb 6.42074 17.9247
rfemur -28.3646 4.11384 17.2438
rtibia 10.5732
rfoot -17.1004 -3.75284
rtoes -13.148
lfemur -37.9656 -10.4058 -23.0487
ltibia 27.8042
lfoot -4.53028 -2.1048
ltoes -26.2221
281
root 3.99622 17.2448 16.8466 -152.551 -0.424917 174.847
lowerback -24.4012 -3.23031 -7.42416
upperback 1.56157 -2.21338 -0.313039
thorax 15.9219 -1.66972 3.04042
lowerneck -1.24427 -3.44343 -0.324812
upperneck 25.1251 -2.60354 0.79607
head 7.95877 -0.35273 0.254339
rclavicle 2.41026e-015 1.14798e-014
rhumerus -39.6551 -16.2604 -78.9805
rradius 37.5613
rwrist -9.3055
rhand -2.52758 -56.4492
rfingers 7.12502
rthumb 23.1673 -85.0761
lclavicle 2.41026e-015 1.14798e-014
lhumerus -32.1218 7.96476 75.2995
lradius 25.3628
lwrist -4.21591
lhand -20.1108 -11.9527
lfingers 7.12502
lthumb 6.23289 17.9356
rfemur -28.0771 4.03487 17.4754
rtibia 10.3044
rfoot -17.1518 -3.4124
rtoes -12.9793
lfemur -37.0061 -10.1856 -23.0649
ltibia 26.4533
lfoot -5.0016 -1.96383
ltoes -26.1306
282
root 3.9992 17.2368 16.8166 -152.709 -0.49408 174.934
lowerback -24.4261 -3.2911 -7.43409
upperback 1.52841 -2.29889 -0.26378
thorax 15.909 -1.71062 3.07095
lowerneck -1.31748 -3.47269 -0.448207
upperneck 25.4686 -2.59889 0.87685
head 8.09225 -0.333154 0.305123
rclavicle 1.59276e-014 -4.47266e-016
rhumerus -39.8417 -16.1566 -78.8898
rradius 37.4509
rwrist -9.35936
rhand -2.44882 -56.7321
rfingers 7.12502
rthumb 23.2429 -85.3494
lclavicle 1.59276e-014 -4.47266e-016
lhumerus -32.4607 7.6098 75.4353
lradius 25.6311
lwrist -3.77046
lhand -20.3169 -12.4079
lfingers 7.12502
lthumb 6.03391 17.4862
rfemur -27.4981 3.83437 17.7003
rtibia 9.79556
rfoot -17.133 -3.16646
rtoes -12.7762
lfemur -35.8579 -10.1191 -23.1272
ltibia 24.9463
lfoot -5.4386 -1.66963
ltoes -27.3981
283
root 4.00115 17.2271 16.7927 -152.657 -0.464375 174.963
lowerback -24.7512 -3.36118 -7.50043
upperback 1.51245 -2.3515 -0.246042
thorax 16.0891 -1.74652 3.09918
lowerneck -1.03794 -3.26455 -0.438939
upperneck 25.0889 -2.34301 0.885772
head 7.91104 -0.225324 0.324419
rclavicle -1.54555e-014 4.07509e-015
rhumerus -39.9342 -16.1897 -78.8353
rradius 37.3832
rwrist -9.33978
rhand -2.47053 -56.714
rfingers 7.12502
rthumb 23.222 -85.3339
lclavicle -1.54555e-014 4.07509e-015
lhumerus -32.5289 7.67921 75.4101
lradius 25.6551
lwrist -3.62179
lhand -20.2407 -12.7155
lfingers 7.12502
lthumb 6.10748 17.1764
rfemur -27.2932 3.726 17.7717
rtibia 9.46782
rfoot -17.0953 -2.9595
rtoes -12.4014
lfemur -35.0192 -10.0285 -23.2219
ltibia 23.4
lfoot -5.80887 -1.31525
ltoes -27.0076
284
root 4.00296 17.22 16.7767 -152.52 -0.462361 175.095
lowerback -25.0618 -3.39947 -7.41944
upperback 1.80316 -2.41038 -0.156038
thorax 15.8708 -1.75584 2.99714
lowerneck -0.922304 -3.19413 -0.389128
upperneck 24.9769 -2.25369 0.872438
head 7.85081 -0.183206 0.31788
rclavicle -1.09332e-014 8.84592e-015
rhumerus -40.0115 -16.374 -78.7668
rradius 37.2633
rwrist -9.1023
rhand -2.48898 -56.679
rfingers 7.12502
rthumb 23.2043 -85.3012
lclavicle -1.09332e-014 8.84592e-015
lhumerus -32.621 7.84869 75.3188
lradius 25.7361
lwrist -3.68521
lhand -20.1717 -12.4617
lfingers 7.12502
lthumb 6.17403 17.4284
rfemur -27.3062 3.80759 17.901
rtibia 9.30713
rfoot -17.0772 -2.88292
rtoes -11.6302
lfemur -34.3343 -9.79873 -23.1803
ltibia 21.8987
lfoot -5.92714 -1.27146
ltoes -25.2586
